<?xml version="1.0" encoding="iso-8859-1"?>
<!-- Generator: Adobe Illustrator 17.0.0, SVG Export Plug-In . SVG Version: 6.00 Build 0)  -->
<!DOCTYPE svg PUBLIC "-//W3C//DTD SVG 1.1//EN" "http://www.w3.org/Graphics/SVG/1.1/DTD/svg11.dtd">
<svg version="1.1" xmlns="http://www.w3.org/2000/svg" xmlns:xlink="http://www.w3.org/1999/xlink" x="0px" y="0px"
	 width="934.021px" height="343.963px" viewBox="0 0 934.021 343.963" style="enable-background:new 0 0 934.021 343.963;"
	 xml:space="preserve">
<g id="Layer_7">
	<path style="fill:#FFFFFF;" d="M25.913,160.341l1.155,2.619c-1.105-1.465-2.485-3.789-3.966-6.494
		c6.441,13.539,15.007,28.57,23.859,42.773l3.331,5.284l1.67,2.606l0.834,1.288l0.106,0.162l0.043,0.059l0.08,0.103l0.159,0.207
		c0.848,1.089,1.681,2.075,2.463,2.923c1.57,1.703,2.94,2.84,3.999,3.316c0.601,1.108,1.236,1.84,1.69,1.969
		c0.46,0.146,0.738-0.308,0.796-1.283c0.058-0.97-0.084-2.217-0.273-3.3c-0.193-1.1-0.437-2.029-0.75-2.662
		c-0.11-0.442-0.248-0.846-0.277-1.255c-0.13-1.873-0.089-3.199,0.091-4.088c0.047-0.221,0.099-0.415,0.161-0.582
		c0.029-0.089,0.064-0.167,0.096-0.24l0.028-0.051l-0.347-0.682l-0.716-1.403l-5.983-11.527l4.46,9.438
		c-2.375-4.543-4.709-9.04-7.599-13.96l0.487,2c-7.72-15.921-20.462-36.476-28.441-45.914c-8.009-9.478-8.267-4.316-0.545,11.604
		L25.913,160.341z"/>
	<path style="fill:#FFFFFF;" d="M37.206,191.889c-4.755-9.457-9.248-18.573-13.738-27.712l-0.699-1.918l-1.096,1.434l0.192,0.114
		c6.041,7.475,14.502,20.682,22.184,32.912l2.829,4.308c1.441,2.012,2.557,3.262,3.122,3.524c1.302,0.63-0.333-3.632-3.638-9.489
		l-3.814-6.751c-8.774-16.753-23.849-42.361-31.643-49.991c-1.769-1.711-1.429,0.499-1.827,1.331
		c-1.318-0.059,1.462,6.553,6.192,14.717c4.739,8.175,9.582,14.738,10.871,14.732l2.258,4.279l-2.27-3.058
		c2.19,1.803,6.75,9.105,10.449,14.355l5.111,8.126l-0.525-5.986l-2.835-4.123c0.099,0.382,0.331,1.099,0.29,1.049
		c-5.443-7.828-10.598-15.17-16.284-23.902l-7.474-10.802c-2.229-2.804-2.685-2.137-1.099,1.434l2.473,5.289l-1.049-2.428
		c6.304,11.831,13.192,24.176,19.396,35.9c0.958,1.867,2.346,4.006,3.129,4.828C38.407,194.74,38.209,193.813,37.206,191.889z"/>
	<g>
		<path style="fill:#FFFFFF;" d="M12.865,151.342c-0.934-1.972-1.814-3.872-3.429-6.517l-0.848-1.029l1.773,3.875
			C11.633,150.463,12.644,151.689,12.865,151.342z"/>
		<polygon style="fill:#FFFFFF;" points="8.587,143.797 7.848,142.176 8.238,143.321 8.432,143.609 		"/>
		<path style="fill:#FFFFFF;" d="M268.121,101.537c14.857-15.976,31.053-30.937,48.717-44.292
			c17.656-13.339,36.816-25.046,57.303-34.252c1.375-0.616,2.485-1.233,2.485-1.417c0.011-0.157-1.118,0.186-2.387,0.764
			c-20.56,9.192-39.733,20.874-57.4,34.176c-17.676,13.315-33.879,28.239-48.778,44.22c-0.994,1.086-1.72,2.064-1.738,2.312
			C266.397,103.217,267.187,102.542,268.121,101.537z"/>
		<path style="fill:#FFFFFF;" d="M564.92,30.403c-0.989-0.207-1.002-0.034-0.06,0.409c0.811,0.378,2.299,0.929,3.279,1.143
			c0.827,0.186,0.862-0.017,0.06-0.406C567.261,31.095,565.756,30.575,564.92,30.403z"/>
		<path style="fill:#FFFFFF;" d="M552.558,39.577c-5.473-1.468-10.715-2.659-15.447-3.401c-0.881-0.161-1.848-0.411-2.56-0.651
			c0.255,0.336-0.843,0.29-2.84-0.051c-19.674-3.469-40.251-5.087-60.857-3.798c-20.595,1.237-41.16,5.444-60.531,12.516
			c-0.196,0.283-0.647,0.654-1.453,1.131c-2.49,1.523-7.722,3.761-13.226,5.934l-4.171,1.609
			c-16.691,6.914-32.582,15.915-47.574,26.295c-2.842,2.431-6.183,5.187-9.829,8.168c-11.853,10.45-22.966,21.817-33.658,34.023
			c0.828-0.625,1.412-0.922,1.57-0.752c0.189,0.608-2.087,3.603-5.037,6.828l-4.371,4.953c4.271-4.675,8.665-9.236,13.154-13.633
			c0.639-0.646,1.255-1.216,1.825-1.729c4.857-4.901,9.879-9.723,15.104-14.479c22.768-20.754,47.394-37.772,73.78-49.692
			c26.343-11.952,54.463-18.646,83.131-19.572c0.941-0.081,2.411-0.049,3.247,0.11c0.55,0.146,0.445,0.329-0.604,0.378
			c-18.054,1.047-34.502,4.432-50.725,9.646c-16.22,5.264-32.27,12.364-49.468,22.189c-20.455,11.741-39.123,26.431-56.21,43.15
			c-17.08,16.737-32.623,35.506-46.748,55.854c-3.253,4.413-6.382,8.869-9.393,13.359l-2.236,3.379l-2.082,3.193l-2.158,3.39
			c-2.857,4.534-5.628,9.136-8.328,13.875c-2.701,4.739-5.337,9.586-7.88,14.77l-7.638,16.029l-15.419,32.702l-1.471-1.864
			l-0.684-0.851c-0.219-0.272-0.429-0.522-0.7-0.93l-3.044-4.414l-6.11-8.849l-12.296-17.783l-24.999-36.128l-6.358-9.18
			l-2.489-3.571l-1.701-2.408l-6.834-9.684l-3.444-4.877c-1.026-1.447-2.776-3.966-2.425-3.382l-0.631-0.539
			c-0.724-0.585-1.205-0.897-1.548-1.065c-0.235,1.024-0.368,1.727-0.459,2.255l-0.06,0.361l-0.012,0.079l-0.952,2.277l-2.145,5.106
			l-8.592,20.399l-18.488,43.62l-34.755,81.428c-4.179,9.978-8.338,19.655-12.313,28.662
			c-10.751-18.648-20.374-36.161-27.289-49.635c-6.941-13.515-11.172-22.974-11.837-26.702c-0.464-2.743,1.047-2.09,3.886,0.987
			c2.844,3.088,7.014,8.59,12.042,15.848l-5.757-9.827l-8.916-15.876c-4.183-7.474-7.941-14.434-11.057-20.487
			c-1.562-3.029-2.961-5.837-4.185-8.377c-0.36-0.727-0.471-1.035-0.636-1.434l-0.449-1.139c-0.289-0.739-0.546-1.449-0.777-2.11
			l-2.652-7.207c-2.858-9.985-9.242-25.125-11.06-33.602l1.822,1.064l-0.73-1.826c-2.614-5.92-3.962-10.142-3.811-11.963
			l1.391-0.105c1.915,0.434,4.704,2.517,8.417,6.313c0.365-0.423,1.127-0.153,2.23,0.752c-1.133-4.442-1.037-6.914,2.009-4.674
			c-1.027-2.465-0.335-2.363,1.538,0.192c0.643,0.883,1.365,1.978,2.065,3.122l-0.014-0.033c-0.456-1.417-0.595-1.842-1.278-3.713
			l-1.947-3.67l-6.262-11.464c-2.275-4.721-3.388-7.805-3.388-7.805c-1.011-6.108-1.011-6.108,0.273-5.826
			c0.252,0.242,0.527,0.522,0.806,0.824l-2.765-5.558c-0.514-1.212-0.795-2.083-0.795-2.083c0.344-0.434,0.344-0.434,0.101-1.212
			c0.046-0.323,0.239-0.369,0.239-0.369c1.809,1.932,1.809,1.932,1.986,1.908c0.445,0.448,0.98,1.105,0.98,1.105l2.64,3.941
			l2.148,6.28l1.119,0.978l0.233,1.617l0.052-1.024l1.373,2.996l-1.477-3.473c3.764,6.78,3.764,6.78,5.361,9.443
			c1.581,2.813,3.103,5.125,3.28,5.4c0.015-0.318,0.114-0.396,0.114-0.396l7.931,14.332c0.273,0.711,0.467,1.282,0.639,1.822
			c0.53,0.59,1.395,1.878,2.167,3.269l2.072,3.705l0.53,0.746c0.021-0.016,0.031-0.033,0.031-0.033l2.051,2.947l0.429,0.604
			l0.015,0.045l8.866,12.756l1.746,3.195l0.821,1.528l0.397,0.747c0.13,0.248,0.28,0.528,0.309,0.604
			c-0.014-0.105-0.225-0.549-0.343-0.832l-0.403-0.93c-0.516-1.234,0.522-0.447,0.198-1.088
			c-8.092-15.789-17.532-32.624-26.718-49.29c-1.786-2.908-3.16-5.814-3.068-6.451c0.127-0.593,1.683,1.315,3.505,4.303
			c5.393,7.84,10.9,16.233,16.41,24.952c2.752,4.364,5.509,8.806,8.25,13.304l4.103,6.787l3.668,6.162
			c3.28,5.567,6.195,11.659,9.909,19.957l0.266-0.385c1.517-2.875,3.129-6.078,4.819-9.484c-0.122,0.071-0.238,0.141-0.36,0.197
			l1.438-2.385l0.146-0.293c-0.507,0.418-0.992,0.774-1.45,1.078l-0.737,1.051c-1.516,3.128-2.99,5.688-4.288,7.661
			c-2.245-4.901-4.052-9.303-5.607-12.947c-0.736-1.73-1.285-3.324-1.703-4.734l-0.293-1.03l-0.068-0.245l-0.016-0.06l-0.118-0.237
			l-0.247-0.482l-0.987-1.942l-4.041-7.854c-1.526-2.678-2.334-4.682-1.826-4.557c0.487,0.127,2.165,2.474,3.658,5.092l4.722,7.754
			l0.592,0.98l0.127,0.207l0.052,0.076l0.202,0.301l0.392,0.603c0.517,0.803,1.007,1.624,1.485,2.498
			c0.963,1.756,1.892,3.74,3.02,6.41c1.174-1.428,2.647-2.746,4.779-4.588c0.378-0.854,0.786-1.633,1.247-2.368
			c0.231-0.369,0.476-0.723,0.733-1.067l0.4-0.509l0.209-0.251l0.107-0.121c0.025-0.036,0.023-0.014,0.068-0.091l0.13-0.245
			l0.141-0.297l-0.31,0.487c-0.094,0.142-0.114,0.099-0.171,0.161l-0.292,0.2l-0.574,0.369c0.184-0.302,0.374-0.558,0.57-0.795
			l1.476-2.681c0.994-1.786,1.974-3.508,3.074-5.744l-1.671,1.283c5.589-12.24,11.178-25.068,16.766-37.63
			c2.796-6.283,5.587-12.497,8.384-18.534l6.317-13.884l6.7-14.428l1.965-4.351c6.582-17.208,13.635-35.457,22.275-55.872
			l-8.844,19.814c3.789-9.547,7.643-19.108,11.655-28.773c3.533,5.086,7.147,10.364,10.866,15.888
			c13.194,19.57,27.114,40.869,38.736,59.364l4.25,6.808c1.31,2.112,2.985,4.785,3.446,5.663c1.446,2.541,2.801,4.984,4.047,7.29
			c2.482,4.616,4.518,8.701,5.942,12.008l2.641,3.82l1.536,2.191l3.035,4.33l2.997,4.265l1.48,2.104l0.736,1.05l0.184,0.261
			c0.053-0.035,0.096-0.189,0.144-0.277l0.288-0.609c1.336-2.804,2.784-5.513,4.268-8.143c0.746-1.32,1.501-2.613,2.266-3.89
			l1.158-1.894l0.588-0.951l1.57-2.395c9.462-14.352,19.69-28.207,30.713-41.478c1.789-2.171,3.615-3.931,4.176-4.1
			c0.417-0.021-0.588,1.567-2.381,3.722c-10.907,13.449-21.092,27.513-30.55,42.093l-1.763,2.743l-0.271,0.426l-0.171,0.288
			l-0.332,0.558l-1.331,2.269c-0.884,1.53-1.767,3.095-2.64,4.693c-1.744,3.196-3.47,6.523-5.081,9.99l-0.299,0.652
			c-0.103,0.177-0.181,0.62-0.322,0.262l-0.767-1.058l-1.553-2.148l1.55,2.479l0.786,1.251c0.146,0.391,0.227-0.032,0.333-0.181
			l0.309-0.582c2.754-5.068,6.029-10.26,9.633-15.555l4.325-6.294c2.047-2.958,4.134-5.898,6.256-8.822
			c4.238-5.839,8.62-11.616,13.151-17.319c2.617-3.382,5.295-6.756,8.043-10.097c2.707-3.306,5.546-6.459,8.45-9.536
			c14.324-16.047,29.593-30.653,46.24-43.934c16.651-13.262,34.7-25.228,54.801-35.383c17.173-8.66,34.285-15.07,51.918-19.629
			c17.648-4.519,35.84-7.2,55.274-7.74c27.313-0.736,53.373,2.917,78.19,9.599c24.839,6.72,48.507,16.458,71.578,28.856
			c6.182,3.218,11.468,6.937,11.78,8.022c0.321,1.098-4.357-0.827-10.483-4.075c-24.075-12.473-49.417-22.776-75.938-29.679
			c-26.483-6.898-54.197-10.298-81.981-8.927c-27.77,1.31-55.454,7.477-81.428,18.03c-26.015,10.522-50.301,25.254-72.532,42.808
			c-9.602,7.577-18.604,15.533-27.151,23.812c0.183-0.034,0.359-0.06,0.435,0.019c0.297,0.306-0.241,1.375-1.353,2.942
			c9.634-9.404,19.91-18.344,30.807-26.607c14.673-12.075,30.538-22.988,47.893-32.103c17.338-9.099,36.207-16.378,56.42-20.849
			c27.795-6.082,53.912-6.266,79.6-2.854c32.793,2.831,64.645,11.795,94.712,24.926c1.212,0.487,2.424,1.126,2.783,1.463
			c0.362,0.336-0.337,0.172-1.565-0.325c-20.898-8.472-43.05-15.567-66.07-19.905c3.505,1.266,5.474,2.408,5.028,3.012
			c-0.448,0.631-3.352,0.587-7.665,0.139c5.12,1.088,10.203,2.333,15.25,3.707c3.11,0.868,5.47,1.85,5.283,2.166
			c-0.175,0.353-2.71-0.097-5.661-0.902c-20.482-5.556-41.631-8.888-62.93-9.315c-25.574-0.088-51.043,4.01-75.226,12.132
			c3.511-0.632,6.168-0.794,7.536-0.504c0.005,0.002,0.005,0.007,0.005,0.01c3.769-1.094,7.546-2.106,11.338-3.009
			c17.308-4.565,35.34-7.03,53.523-7.295c18.189-0.269,36.501,1.655,54.455,5.465c35.967,7.636,70.248,22.672,101.804,41.692
			c1.244,0.738,2.201,1.46,2.134,1.623c-0.064,0.155-1.091-0.3-2.201-0.978c-19.038-11.495-39.008-21.501-59.788-29.346l0.083,0.04
			c0.798,0.417,0.887,0.65-0.073,0.406c-0.827-0.216-2.465-0.822-3.257-1.221c-0.919-0.469-0.77-0.606,0.051-0.411
			c-19.429-7.093-39.57-12.247-59.969-14.817c-20.386-2.593-41.011-2.571-61.068,0.258c18.682-2.24,37.638-2.105,56.281,0.212
			c18.65,2.307,36.978,6.775,54.652,12.904c3.934,1.105,7.833,2.285,11.787,3.578c1.065,0.367,2.408,0.996,2.78,1.298
			c0.245,0.241-0.588,0.099-1.685-0.285l-3.263-1.073c6.615,2.538,11.37,5.313,10.934,6.048c-0.7,0.659-6.51-1.057-13.332-3.601
			c-18.351-6.589-37.22-11.555-56.436-14.367c-2.083-0.253-4.17-0.488-6.259-0.692c-2.118-0.13-4.217-0.216-6.323-0.284
			c29.978,3.235,59.034,12.145,86.16,24.449c2.347,1.012,4.243,2.136,4.16,2.438c-0.067,0.297-2.058-0.316-4.405-1.333
			c-24.231-9.901-49.662-17.207-75.677-20.445c-25.984-3.274-52.506-2.331-78.07,3.334c-16.551,4.801-32.421,11.548-47.569,20.016
			l6.033-2.652c25.736-11.058,51.064-17.578,76.846-19.767c25.754-2.155,51.967,0.064,78.768,7.352
			c1.352,0.342,2.42,0.806,2.554,1.001c0.095,0.192-0.849,0.058-2.201-0.325c-13.065-3.508-25.815-5.753-38.565-6.958
			c-12.753-1.201-25.516-1.359-38.67-0.446c-21.798,1.523-42.136,6.201-60.861,13.538c19.402-6.71,39.233-10.871,59.354-12.264
			c20.112-1.409,40.492-0.046,60.783,4.042c1.781,0.316,3.54,0.808,4.624,1.226c0.111-0.058,0.49-0.049,1.04,0.035
			c5.133,0.808,10.68,2.01,16.303,3.471c1.078,0.258,2.401,0.731,2.907,1.077C554.453,39.929,553.766,39.86,552.558,39.577z
			 M63.752,248.621l-0.382-0.999l1.332,2.869l0.843,2.446c0.231-0.094,0.543-0.227,0.976-0.453l-0.949,0.894L63.752,248.621z
			 M35.712,210.092l0.02,0.032l-0.942-2.964L35.712,210.092z M223.175,169.008c-1.471,2.567-2.887,5.131-4.195,7.674l-0.333,0.653
			l-0.161,0.331l-0.041,0.078c-0.012,0.043-0.028,0.049-0.044,0.003l-0.108-0.162l-0.841-1.298l-1.673-2.606l-3.271-5.2
			c-2.139-3.452-4.19-6.868-6.068-10.15l4.278,5.947l4.073,6.69l2.12,3.49l1.081,1.791l0.276,0.45
			c0.043,0.06,0.092,0.177,0.136,0.196l0.102-0.196l0.431-0.774C220.222,173.65,221.644,171.353,223.175,169.008z M51.358,218.42
			c1.218,3.336,2.167,6.507,3.197,9.864c1.271,1.861,2.531,3.885,3.795,6.095c2.268,3.961,4.512,7.945,6.772,12.022l2.64-5.637
			c-0.453-0.051,0.175-1.388,0.471-2.209l0.917-2.412l-4.144,8.428l-5.067-9.626C56.959,229.251,53.788,223.499,51.358,218.42z
			 M12.748,156.318l-0.359-0.924l1.646,1.509L12.748,156.318z M10.088,153.981l0.75,1.455
			C10.331,155.055,10.137,154.551,10.088,153.981z M17.003,167.317c-0.302-0.851-0.484-1.369-0.775-2.005L17.003,167.317z
			 M5.887,186.249l5.783,3.376l-5.94-3.896L5.887,186.249z"/>
	</g>
</g>
<g id="Layer_6">
	<path style="fill:#FFFFFF;" d="M421.003,162.998l-16.564-57.633h13.704l10.01,39.286l10.01-39.286h12.513l-16.568,57.633v28.578
		h-13.106V162.998z"/>
	<path style="fill:#FFFFFF;" d="M453.062,126.057c0-13.798,7.035-21.681,19.905-21.681c12.872,0,19.903,7.883,19.903,21.681v44.824
		c0,13.795-7.03,21.678-19.903,21.678c-12.869,0-19.905-7.883-19.905-21.678V126.057z M466.177,171.744c0,6.159,2.621,8.5,6.79,8.5
		c4.173,0,6.792-2.341,6.792-8.5v-46.553c0-6.156-2.619-8.5-6.792-8.5c-4.17,0-6.79,2.345-6.79,8.5V171.744z"/>
	<path style="fill:#FFFFFF;" d="M513.849,105.366v66.504c0,6.154,2.621,8.374,6.793,8.374c4.174,0,6.793-2.22,6.793-8.374v-66.504
		h12.392v65.638c0,13.8-6.672,21.681-19.543,21.681c-12.873,0-19.545-7.881-19.545-21.681v-65.638H513.849z"/>
	<path style="fill:#FFFFFF;" d="M560.45,129.135v62.441h-11.799v-86.21h16.447l13.466,51.601v-51.601h11.682v86.21h-13.469
		L560.45,129.135z"/>
	<path style="fill:#FFFFFF;" d="M619.327,143.542h18.351v27.339c0,13.795-6.671,21.678-19.543,21.678
		c-12.869,0-19.544-7.883-19.544-21.678v-44.824c0-13.798,6.674-21.681,19.544-21.681c12.873,0,19.543,7.883,19.543,21.681v8.372
		h-12.391v-9.237c0-6.156-2.624-8.5-6.793-8.5c-4.173,0-6.793,2.345-6.793,8.5v46.553c0,6.159,2.621,8.377,6.793,8.377
		c4.169,0,6.793-2.218,6.793-8.377v-15.888h-5.96V143.542z"/>
</g>
<g id="Layer_5">
	<path style="fill:#FFFFFF;" d="M345.214,233.056l-3.416,32.93h-12.901l-6.662-61.795h9.143l5.039,48.73l4.531-48.73H350
		l4.699,49.086l4.869-49.086h8.201l-6.665,61.795h-12.472L345.214,233.056z"/>
	<path style="fill:#FFFFFF;" d="M381.868,230.235h12.903v8.826h-12.903v18.1h16.233v8.826h-25.629v-61.795h25.629v8.829h-16.233
		V230.235z"/>
	<path style="fill:#FFFFFF;" d="M432.021,218.404v2.203c0,6.361-1.88,10.421-6.067,12.45c5.043,2.034,7.006,6.711,7.006,13.246v5.03
		c0,9.536-4.871,14.654-14.269,14.654h-14.779v-61.795h14.183C427.832,204.191,432.021,208.866,432.021,218.404z M413.308,213.02
		v16.328h3.677c3.5,0,5.64-1.587,5.64-6.531v-3.444c0-4.411-1.453-6.353-4.787-6.353H413.308z M413.308,238.178v18.982h5.384
		c3.163,0,4.871-1.503,4.871-6.092v-5.386c0-5.733-1.794-7.504-6.067-7.504H413.308z"/>
	<path style="fill:#FFFFFF;" d="M458.506,248.069l6.407-43.878h13.071v61.795H469.1V221.67l-6.491,44.315h-8.888l-7.005-43.697
		v43.697h-8.199v-61.795h13.07L458.506,248.069z"/>
	<path style="fill:#FFFFFF;" d="M515.234,265.986h-9.484l-1.62-11.214h-11.535l-1.622,11.214h-8.628l9.567-61.795h13.755
		L515.234,265.986z M493.794,246.39h9.055l-4.527-31.252L493.794,246.39z"/>
	<path style="fill:#FFFFFF;" d="M532.238,203.48c9.144,0,13.841,5.652,13.841,15.541v1.943h-8.886v-2.56
		c0-4.414-1.706-6.092-4.698-6.092c-2.99,0-4.699,1.678-4.699,6.092c0,12.712,18.368,15.097,18.368,32.755
		c0,9.886-4.783,15.535-14.013,15.535c-9.226,0-14.01-5.648-14.01-15.535v-3.801h8.884v4.416c0,4.416,1.878,6.006,4.871,6.006
		c2.99,0,4.871-1.59,4.871-6.006c0-12.714-18.37-15.094-18.37-32.753C518.399,209.132,523.098,203.48,532.238,203.48z"/>
	<path style="fill:#FFFFFF;" d="M548.814,204.191h29.047v8.829h-9.824v52.966h-9.398V213.02h-9.824V204.191z"/>
	<path style="fill:#FFFFFF;" d="M591.362,230.235h12.9v8.826h-12.9v18.1h16.23v8.826h-25.628v-61.795h25.628v8.829h-16.23V230.235z"
		/>
	<path style="fill:#FFFFFF;" d="M633.055,265.986c-0.514-1.585-0.857-2.557-0.857-7.59v-9.71c0-5.739-1.875-7.859-6.149-7.859
		h-3.245v25.158h-9.396v-61.795h14.178c9.743,0,13.925,4.675,13.925,14.213v4.857c0,6.353-1.964,10.503-6.151,12.532
		c4.701,2.032,6.237,6.71,6.237,13.157v9.536c0,2.999,0.092,5.205,1.024,7.499H633.055z M622.803,213.02v18.977h3.672
		c3.506,0,5.637-1.585,5.637-6.531v-6.094c0-4.411-1.45-6.353-4.782-6.353H622.803z"/>
</g>
<g id="Layer_4">
	<path style="fill:#FFFFFF;" d="M530.987,318.661v8.209c0,9.891-4.782,15.539-14.008,15.539c-9.228,0-14.01-5.648-14.01-15.539
		v-32.131c0-9.891,4.782-15.539,14.01-15.539c9.226,0,14.008,5.648,14.008,15.539v6.003h-8.884v-6.623
		c0-4.414-1.878-6.092-4.869-6.092c-2.99,0-4.871,1.678-4.871,6.092v33.372c0,4.416,1.881,6.005,4.871,6.005
		c2.991,0,4.869-1.589,4.869-6.005v-8.829H530.987z"/>
	<path style="fill:#FFFFFF;" d="M567.127,341.706h-9.482l-1.622-11.214h-11.532l-1.625,11.214h-8.628l9.568-61.8h13.754
		L567.127,341.706z M545.683,322.102h9.056l-4.529-31.249L545.683,322.102z"/>
	<path style="fill:#FFFFFF;" d="M591.393,323.78l6.409-43.873h13.071v61.8h-8.888v-44.322l-6.491,44.322h-8.886l-7.005-43.705
		v43.705h-8.199v-61.8h13.071L591.393,323.78z"/>
	<path style="fill:#FFFFFF;" d="M645.56,295.179v8.035c0,9.886-4.613,15.272-14.01,15.272h-4.446v23.22h-9.396v-61.8h13.843
		C640.947,279.906,645.56,285.291,645.56,295.179z M627.104,288.737v20.917h4.446c2.988,0,4.612-1.41,4.612-5.826v-9.266
		c0-4.416-1.624-5.825-4.612-5.825H627.104z"/>
</g>
<g id="Layer_3">
	<path style="fill:#FFFFFF;" d="M868.001,110.189h30.541v9.284h-10.331v55.693h-9.882v-55.693h-10.328V110.189z"/>
	<path style="fill:#FFFFFF;" d="M912.732,175.167h-9.885v-64.978h9.885v27.847h11.23v-27.847h10.059v64.978h-10.059v-27.846h-11.23
		V175.167z"/>
</g>
<g id="Layer_2">
	<g>
		<path style="fill:#FFFFFF;" d="M664.678,136.445c28.507,0,34.878-13.847,40.579-29.718h24.82v236.384h-36.891V162.785h-28.507
			V136.445z"/>
		<path style="fill:#FFFFFF;" d="M803.521,137.795c-11.736,0-19.114,6.416-19.114,23.3v25.327h-34.881V163.46
			c0-37.821,18.782-59.433,55.002-59.433c36.223,0,55.002,21.612,55.002,59.433c0,74.291-73.446,101.984-73.446,140.818
			c0,1.687,0,3.376,0.336,5.065h69.759v33.769H749.525V314.07c0-69.563,73.112-81.046,73.112-149.259
			C822.638,143.537,815.261,137.795,803.521,137.795z"/>
	</g>
	<g>
		<path style="fill:#FFFFFF;" d="M693.657,200.254c4.926-0.253,9.866-0.382,14.817-0.382c7.382,0,14.746,0.285,22.073,0.843v-94.373
			H705.73c-5.701,15.873-12.073,29.718-40.579,29.718v26.34h28.506V200.254z"/>
		<path style="fill:#FFFFFF;" d="M784.879,160.71c0-16.883,7.377-23.299,19.116-23.299s19.119,5.741,19.119,27.015
			c0,21.913-7.552,37.971-17.796,51.982c10.828,3.785,21.428,8.194,31.75,13.205c12.768-17.71,22.935-38.899,22.935-66.538
			c0-37.822-18.782-59.432-55.002-59.432c-36.221,0-55.002,21.61-55.002,59.432v22.962h34.879V160.71z"/>
	</g>
</g>
</svg>
